<mxfile host="65bd71144e" modified="2021-01-10T12:53:14.865Z" agent="5.0 (Windows NT 10.0; Win64; x64) AppleWebKit/537.36 (KHTML, like Gecko) Code/1.52.1 Chrome/83.0.4103.122 Electron/9.3.5 Safari/537.36" version="13.10.0" etag="t5p7GXaXfYaQv-SnbPZw" type="embed">
    <diagram id="Weqhh0mCgooDkqmdmX20" name="第 1 页">
        <mxGraphModel dx="1195" dy="745" grid="1" gridSize="10" guides="1" tooltips="1" connect="1" arrows="1" fold="1" page="1" pageScale="1" pageWidth="827" pageHeight="1169" background="#F4F1DE" math="0" shadow="0">
            <root>
                <mxCell id="0"/>
                <mxCell id="1" parent="0"/>
                <mxCell id="12" value="" style="strokeWidth=2;html=1;shape=mxgraph.flowchart.annotation_2;align=left;labelPosition=right;pointerEvents=1;rounded=0;sketch=0;fillColor=#F2CC8F;strokeColor=#E07A5F;fontColor=#393C56;horizontal=1;" vertex="1" parent="1">
                    <mxGeometry x="160" y="342" width="60" height="320" as="geometry"/>
                </mxCell>
                <mxCell id="13" value="input_dev" style="rounded=1;whiteSpace=wrap;html=1;sketch=0;strokeColor=#E07A5F;fillColor=#F2CC8F;fontColor=#393C56;" vertex="1" parent="1">
                    <mxGeometry x="50" y="472" width="120" height="60" as="geometry"/>
                </mxCell>
                <mxCell id="14" value="EV_KEY" style="rounded=1;whiteSpace=wrap;html=1;sketch=0;strokeColor=#E07A5F;fillColor=#F2CC8F;fontColor=#393C56;" vertex="1" parent="1">
                    <mxGeometry x="210" y="310" width="120" height="60" as="geometry"/>
                </mxCell>
                <mxCell id="16" value="" style="strokeWidth=2;html=1;shape=mxgraph.flowchart.annotation_2;align=left;labelPosition=right;pointerEvents=1;rounded=0;sketch=0;fillColor=#F2CC8F;fontColor=#393C56;strokeColor=#E07A5F;" vertex="1" parent="1">
                    <mxGeometry x="330" y="290" width="50" height="100" as="geometry"/>
                </mxCell>
                <mxCell id="17" value="KEY_POWER" style="rounded=1;whiteSpace=wrap;html=1;sketch=0;strokeColor=#E07A5F;fillColor=#F2CC8F;fontColor=#393C56;" vertex="1" parent="1">
                    <mxGeometry x="380" y="260" width="120" height="60" as="geometry"/>
                </mxCell>
                <mxCell id="18" value="KEY_LEF" style="rounded=1;whiteSpace=wrap;html=1;sketch=0;strokeColor=#E07A5F;fillColor=#F2CC8F;fontColor=#393C56;" vertex="1" parent="1">
                    <mxGeometry x="380" y="360" width="120" height="60" as="geometry"/>
                </mxCell>
                <mxCell id="19" value="&lt;font style=&quot;font-size: 31px&quot;&gt;.........&lt;br&gt;&lt;/font&gt;" style="text;html=1;align=center;verticalAlign=middle;resizable=0;points=[];autosize=1;fontColor=#393C56;rotation=90;spacingLeft=0;spacingTop=0;spacing=6;" vertex="1" parent="1">
                    <mxGeometry x="215" y="482" width="110" height="40" as="geometry"/>
                </mxCell>
                <mxCell id="26" value="....." style="text;html=1;align=center;verticalAlign=middle;resizable=0;points=[];autosize=1;fontColor=#393C56;strokeWidth=1;fontSize=30;" vertex="1" parent="1">
                    <mxGeometry x="410" y="310" width="60" height="40" as="geometry"/>
                </mxCell>
                <mxCell id="27" value="" style="strokeWidth=2;html=1;shape=mxgraph.flowchart.annotation_2;align=left;labelPosition=right;pointerEvents=1;rounded=0;sketch=0;fillColor=#F2CC8F;fontColor=#393C56;strokeColor=#E07A5F;" vertex="1" parent="1">
                    <mxGeometry x="500" y="240" width="50" height="80" as="geometry"/>
                </mxCell>
                <mxCell id="28" value="" style="strokeWidth=2;html=1;shape=mxgraph.flowchart.annotation_2;align=left;labelPosition=right;pointerEvents=1;rounded=0;sketch=0;fillColor=#F2CC8F;fontColor=#393C56;strokeColor=#E07A5F;" vertex="1" parent="1">
                    <mxGeometry x="500" y="350" width="60" height="90" as="geometry"/>
                </mxCell>
                <mxCell id="30" value="value" style="text;html=1;align=center;verticalAlign=middle;resizable=0;points=[];autosize=1;fontSize=30;fontColor=#393C56;" vertex="1" parent="1">
                    <mxGeometry x="545" y="110" width="90" height="40" as="geometry"/>
                </mxCell>
                <mxCell id="31" value="哪种按键" style="text;html=1;align=center;verticalAlign=middle;resizable=0;points=[];autosize=1;fontSize=30;fontColor=#393C56;" vertex="1" parent="1">
                    <mxGeometry x="380" y="160" width="140" height="40" as="geometry"/>
                </mxCell>
                <mxCell id="32" value="数据类型" style="text;html=1;align=center;verticalAlign=middle;resizable=0;points=[];autosize=1;fontSize=30;fontColor=#393C56;" vertex="1" parent="1">
                    <mxGeometry x="205" y="160" width="140" height="40" as="geometry"/>
                </mxCell>
                <mxCell id="33" value="1" style="ellipse;whiteSpace=wrap;html=1;rounded=0;sketch=0;strokeColor=#E07A5F;strokeWidth=1;fillColor=#F2CC8F;fontSize=30;fontColor=#393C56;" vertex="1" parent="1">
                    <mxGeometry x="545" y="300" width="80" height="30" as="geometry"/>
                </mxCell>
                <mxCell id="37" value="1" style="ellipse;whiteSpace=wrap;html=1;rounded=0;sketch=0;strokeColor=#E07A5F;strokeWidth=1;fillColor=#F2CC8F;fontSize=30;fontColor=#393C56;" vertex="1" parent="1">
                    <mxGeometry x="545" y="420" width="80" height="30" as="geometry"/>
                </mxCell>
                <mxCell id="38" value="0" style="ellipse;whiteSpace=wrap;html=1;rounded=0;sketch=0;strokeColor=#E07A5F;strokeWidth=1;fillColor=#F2CC8F;fontSize=30;fontColor=#393C56;" vertex="1" parent="1">
                    <mxGeometry x="545" y="340" width="80" height="30" as="geometry"/>
                </mxCell>
                <mxCell id="40" value="0" style="ellipse;whiteSpace=wrap;html=1;rounded=0;sketch=0;strokeColor=#E07A5F;strokeWidth=1;fillColor=#F2CC8F;fontSize=30;fontColor=#393C56;" vertex="1" parent="1">
                    <mxGeometry x="545" y="220" width="80" height="30" as="geometry"/>
                </mxCell>
                <mxCell id="41" value="" style="strokeWidth=2;html=1;shape=mxgraph.flowchart.annotation_2;align=left;labelPosition=right;pointerEvents=1;rounded=0;sketch=0;fillColor=#F2CC8F;strokeColor=#E07A5F;fontColor=#393C56;horizontal=1;" vertex="1" parent="1">
                    <mxGeometry x="310" y="530" width="70" height="260" as="geometry"/>
                </mxCell>
                <mxCell id="45" value="" style="endArrow=none;html=1;strokeColor=#E07A5F;fillColor=#F2CC8F;fontSize=30;fontColor=#393C56;strokeWidth=2;exitX=0.531;exitY=0.485;exitDx=0;exitDy=0;exitPerimeter=0;" edge="1" parent="1">
                    <mxGeometry width="50" height="50" relative="1" as="geometry">
                        <mxPoint x="346.1700000000001" y="660.1500000000001" as="sourcePoint"/>
                        <mxPoint x="388" y="660" as="targetPoint"/>
                    </mxGeometry>
                </mxCell>
                <mxCell id="46" value="哪种坐标" style="text;html=1;align=center;verticalAlign=middle;resizable=0;points=[];autosize=1;fontSize=30;fontColor=#393C56;" vertex="1" parent="1">
                    <mxGeometry x="380" y="460" width="140" height="40" as="geometry"/>
                </mxCell>
                <mxCell id="47" value="ABS_X" style="rounded=1;whiteSpace=wrap;html=1;sketch=0;strokeColor=#E07A5F;fillColor=#F2CC8F;fontColor=#393C56;" vertex="1" parent="1">
                    <mxGeometry x="380" y="510" width="120" height="50" as="geometry"/>
                </mxCell>
                <mxCell id="49" value="ABS_Y" style="rounded=1;whiteSpace=wrap;html=1;sketch=0;strokeColor=#E07A5F;fillColor=#F2CC8F;fontColor=#393C56;" vertex="1" parent="1">
                    <mxGeometry x="380" y="636" width="120" height="44" as="geometry"/>
                </mxCell>
                <mxCell id="50" value="ABS_PRESSURE" style="rounded=1;whiteSpace=wrap;html=1;sketch=0;strokeColor=#E07A5F;fillColor=#F2CC8F;fontColor=#393C56;" vertex="1" parent="1">
                    <mxGeometry x="380" y="770" width="120" height="44" as="geometry"/>
                </mxCell>
                <mxCell id="51" value="480" style="ellipse;whiteSpace=wrap;html=1;rounded=0;sketch=0;strokeColor=#E07A5F;strokeWidth=1;fillColor=#F2CC8F;fontSize=30;fontColor=#393C56;" vertex="1" parent="1">
                    <mxGeometry x="540" y="520" width="80" height="30" as="geometry"/>
                </mxCell>
                <mxCell id="52" value="800" style="ellipse;whiteSpace=wrap;html=1;rounded=0;sketch=0;strokeColor=#E07A5F;strokeWidth=1;fillColor=#F2CC8F;fontSize=30;fontColor=#393C56;" vertex="1" parent="1">
                    <mxGeometry x="540" y="643" width="80" height="30" as="geometry"/>
                </mxCell>
                <mxCell id="54" value="23" style="ellipse;whiteSpace=wrap;html=1;rounded=0;sketch=0;strokeColor=#E07A5F;strokeWidth=1;fillColor=#F2CC8F;fontSize=30;fontColor=#393C56;" vertex="1" parent="1">
                    <mxGeometry x="540" y="777" width="80" height="30" as="geometry"/>
                </mxCell>
                <mxCell id="56" value="" style="endArrow=none;html=1;strokeColor=#E07A5F;fillColor=#F2CC8F;fontSize=30;fontColor=#393C56;strokeWidth=2;exitX=1;exitY=0.5;exitDx=0;exitDy=0;entryX=0;entryY=0.5;entryDx=0;entryDy=0;" edge="1" parent="1" source="47" target="51">
                    <mxGeometry width="50" height="50" relative="1" as="geometry">
                        <mxPoint x="356.1700000000001" y="670.1500000000001" as="sourcePoint"/>
                        <mxPoint x="398" y="670" as="targetPoint"/>
                    </mxGeometry>
                </mxCell>
                <mxCell id="57" value="" style="endArrow=none;html=1;strokeColor=#E07A5F;fillColor=#F2CC8F;fontSize=30;fontColor=#393C56;strokeWidth=2;exitX=0;exitY=0.5;exitDx=0;exitDy=0;entryX=1;entryY=0.5;entryDx=0;entryDy=0;" edge="1" parent="1" source="52" target="49">
                    <mxGeometry width="50" height="50" relative="1" as="geometry">
                        <mxPoint x="500" y="720" as="sourcePoint"/>
                        <mxPoint x="408" y="680" as="targetPoint"/>
                    </mxGeometry>
                </mxCell>
                <mxCell id="58" value="" style="endArrow=none;html=1;strokeColor=#E07A5F;fillColor=#F2CC8F;fontSize=30;fontColor=#393C56;strokeWidth=2;exitX=0.531;exitY=0.485;exitDx=0;exitDy=0;exitPerimeter=0;" edge="1" parent="1">
                    <mxGeometry width="50" height="50" relative="1" as="geometry">
                        <mxPoint x="498.1700000000001" y="790.1500000000001" as="sourcePoint"/>
                        <mxPoint x="540" y="790" as="targetPoint"/>
                    </mxGeometry>
                </mxCell>
                <mxCell id="60" value="EV_ABS" style="rounded=1;whiteSpace=wrap;html=1;sketch=0;strokeColor=#E07A5F;fillColor=#F2CC8F;fontColor=#393C56;" vertex="1" parent="1">
                    <mxGeometry x="205" y="636" width="120" height="60" as="geometry"/>
                </mxCell>
                <mxCell id="61" value="type" style="text;html=1;align=center;verticalAlign=middle;resizable=0;points=[];autosize=1;fontSize=30;fontColor=#393C56;" vertex="1" parent="1">
                    <mxGeometry x="235" y="110" width="70" height="40" as="geometry"/>
                </mxCell>
                <mxCell id="62" value="code" style="text;html=1;align=center;verticalAlign=middle;resizable=0;points=[];autosize=1;fontSize=30;fontColor=#393C56;" vertex="1" parent="1">
                    <mxGeometry x="400" y="110" width="80" height="40" as="geometry"/>
                </mxCell>
                <mxCell id="64" value="数据" style="text;html=1;align=center;verticalAlign=middle;resizable=0;points=[];autosize=1;fontSize=30;fontColor=#393C56;" vertex="1" parent="1">
                    <mxGeometry x="550" y="160" width="80" height="40" as="geometry"/>
                </mxCell>
            </root>
        </mxGraphModel>
    </diagram>
</mxfile>